<svg xmlns="http://www.w3.org/2000/svg" width="20.044" height="20.054" viewBox="0 0 20.044 20.054">
  <g id="accounting_2_" data-name="accounting (2)" transform="translate(0 0.001)">
    <path id="Path_288" data-name="Path 288" d="M107.342,288a3.342,3.342,0,1,0,3.342,3.342A3.342,3.342,0,0,0,107.342,288Zm0,6.016a2.674,2.674,0,1,1,2.674-2.674A2.674,2.674,0,0,1,107.342,294.016Zm0,0" transform="translate(-99.655 -275.969)" fill="#0190c8"/>
    <path id="Path_289" data-name="Path 289" d="M153.337,321c.408,0,.668.2.668.334h.668a1.091,1.091,0,0,0-1-.969V320H153v.368a1.09,1.09,0,0,0-1,.969c0,.563.587,1,1.337,1,.408,0,.668.2.668.334s-.26.334-.668.334-.668-.2-.668-.334H152a1.091,1.091,0,0,0,1,.969v.368h.668v-.368a1.09,1.09,0,0,0,1-.969c0-.563-.587-1-1.337-1-.408,0-.668-.2-.668-.334S152.929,321,153.337,321Zm0,0" transform="translate(-145.65 -306.632)" fill="#0190c8"/>
    <path id="Path_290" data-name="Path 290" d="M17.045,19.384H3.008V11.363H8.355a1,1,0,0,0,1-1V2h3.677V6.015h4.011v4.679h.668V5.543L13.507,1.336H9.358V1a1,1,0,0,0-1-1H1A1,1,0,0,0,0,1V10.36a1,1,0,0,0,1,1H2.339v8.69H17.714V15.374h-.668ZM13.7,2.477l2.87,2.87H13.7ZM.668,10.36V1A.334.334,0,0,1,1,.667H8.355A.334.334,0,0,1,8.689,1V10.36a.334.334,0,0,1-.334.334H1a.334.334,0,0,1-.334-.334Zm0,0" fill="#0190c8"/>
    <path id="Path_291" data-name="Path 291" d="M256,200h.668v.668H256Zm0,0" transform="translate(-245.305 -191.645)" fill="#0190c8"/>
    <path id="Path_292" data-name="Path 292" d="M288,200h4.011v.668H288Zm0,0" transform="translate(-275.968 -191.645)" fill="#0190c8"/>
    <path id="Path_293" data-name="Path 293" d="M256,168h.668v.668H256Zm0,0" transform="translate(-245.305 -160.982)" fill="#0190c8"/>
    <path id="Path_294" data-name="Path 294" d="M288,168h4.011v.668H288Zm0,0" transform="translate(-275.968 -160.982)" fill="#0190c8"/>
    <path id="Path_295" data-name="Path 295" d="M256,232h.668v.668H256Zm0,0" transform="translate(-245.305 -222.308)" fill="#0190c8"/>
    <path id="Path_296" data-name="Path 296" d="M288,232h4.011v.668H288Zm0,0" transform="translate(-275.968 -222.308)" fill="#0190c8"/>
    <path id="Path_297" data-name="Path 297" d="M256,264h.668v.668H256Zm0,0" transform="translate(-245.305 -252.971)" fill="#0190c8"/>
    <path id="Path_298" data-name="Path 298" d="M288,264h4.011v.668H288Zm0,0" transform="translate(-275.968 -252.971)" fill="#0190c8"/>
    <path id="Path_299" data-name="Path 299" d="M31.353,24H24v2.34h7.353Zm-.668,1.671H24.668v-1h6.016Zm0,0" transform="translate(-22.998 -22.998)" fill="#0190c8"/>
    <path id="Path_300" data-name="Path 300" d="M33.337,88h-.668a.668.668,0,0,0-.668.668v.668a.668.668,0,0,0,.668.668h.668a.668.668,0,0,0,.668-.668v-.668A.668.668,0,0,0,33.337,88Zm-.668,1.337v-.668h.668v.668Zm0,0" transform="translate(-30.664 -84.324)" fill="#0190c8"/>
    <path id="Path_301" data-name="Path 301" d="M89.337,88h-.668a.668.668,0,0,0-.668.668v.668a.668.668,0,0,0,.668.668h.668a.668.668,0,0,0,.668-.668v-.668A.668.668,0,0,0,89.337,88Zm-.668,1.337v-.668h.668v.668Zm0,0" transform="translate(-84.324 -84.324)" fill="#0190c8"/>
    <path id="Path_302" data-name="Path 302" d="M145.337,88h-.668a.668.668,0,0,0-.668.668v.668a.668.668,0,0,0,.668.668h.668a.668.668,0,0,0,.668-.668v-.668A.668.668,0,0,0,145.337,88Zm-.668,1.337v-.668h.668v.668Zm0,0" transform="translate(-137.984 -84.324)" fill="#0190c8"/>
    <path id="Path_303" data-name="Path 303" d="M33.337,144h-.668a.668.668,0,0,0-.668.668v.668a.668.668,0,0,0,.668.668h.668a.668.668,0,0,0,.668-.668v-.668A.668.668,0,0,0,33.337,144Zm-.668,1.337v-.668h.668v.668Zm0,0" transform="translate(-30.664 -137.985)" fill="#0190c8"/>
    <path id="Path_304" data-name="Path 304" d="M89.337,144h-.668a.668.668,0,0,0-.668.668v.668a.668.668,0,0,0,.668.668h.668a.668.668,0,0,0,.668-.668v-.668A.668.668,0,0,0,89.337,144Zm-.668,1.337v-.668h.668v.668Zm0,0" transform="translate(-84.324 -137.985)" fill="#0190c8"/>
    <path id="Path_305" data-name="Path 305" d="M145.337,144h-.668a.668.668,0,0,0-.668.668v.668a.668.668,0,0,0,.668.668h.668a.668.668,0,0,0,.668-.668v-.668A.668.668,0,0,0,145.337,144Zm-.668,1.337v-.668h.668v.668Zm0,0" transform="translate(-137.984 -137.985)" fill="#0190c8"/>
    <path id="Path_306" data-name="Path 306" d="M33.337,200h-.668a.669.669,0,0,0-.668.668v.668a.668.668,0,0,0,.668.668h.668a.668.668,0,0,0,.668-.668v-.668A.668.668,0,0,0,33.337,200Zm-.668,1.337v-.668h.668v.668Zm0,0" transform="translate(-30.664 -191.645)" fill="#0190c8"/>
    <path id="Path_307" data-name="Path 307" d="M89.337,200h-.668a.669.669,0,0,0-.668.668v.668a.668.668,0,0,0,.668.668h.668a.668.668,0,0,0,.668-.668v-.668A.668.668,0,0,0,89.337,200Zm-.668,1.337v-.668h.668v.668Zm0,0" transform="translate(-84.324 -191.645)" fill="#0190c8"/>
    <path id="Path_308" data-name="Path 308" d="M145.337,200h-.668a.668.668,0,0,0-.668.668v.668a.668.668,0,0,0,.668.668h.668a.668.668,0,0,0,.668-.668v-.668A.668.668,0,0,0,145.337,200Zm-.668,1.337v-.668h.668v.668Zm0,0" transform="translate(-137.984 -191.645)" fill="#0190c8"/>
    <path id="Path_309" data-name="Path 309" d="M288.064,248.75a1.026,1.026,0,0,0-1.418,0l-5.73,5.73a.338.338,0,0,0-.067.1l-.807,1.752a.334.334,0,0,0,.443.443l1.752-.807a.335.335,0,0,0,.1-.067l5.729-5.73A1,1,0,0,0,288.064,248.75Zm-6.16,6.632-.876.4.4-.876,4.272-4.272.473.473Zm4.746-4.746-.473-.472.234-.234.473.473Zm.943-.942-.236.236-.473-.473.237-.236a.342.342,0,0,1,.472,0A.334.334,0,0,1,287.593,249.694Zm0,0" transform="translate(-268.315 -238.087)" fill="#0190c8"/>
  </g>
</svg>
