<svg xmlns="http://www.w3.org/2000/svg" xmlns:xlink="http://www.w3.org/1999/xlink" width="18" height="18.057" viewBox="0 0 18 18.057">
  <defs>
    <linearGradient id="linear-gradient" y1="0.536" x2="1" y2="0.536" gradientUnits="objectBoundingBox">
      <stop offset="0" stop-color="#159e00"/>
      <stop offset="0.298" stop-color="#17a501"/>
      <stop offset="1" stop-color="#28d90b"/>
    </linearGradient>
  </defs>
  <path id="plus" d="M9,0a9.028,9.028,0,1,0,9,9.028A9.024,9.024,0,0,0,9,0Zm3.938,9.781H9.75v3.2a.75.75,0,1,1-1.5,0v-3.2H5.063a.752.752,0,0,1,0-1.5H8.25v-3.2a.75.75,0,1,1,1.5,0v3.2h3.188a.752.752,0,0,1,0,1.5Zm0,0" fill="url(#linear-gradient)"/>
</svg>
