<svg xmlns="http://www.w3.org/2000/svg" width="20.289" height="20.289" viewBox="0 0 20.289 20.289">
  <g id="bank" transform="translate(-2 -2)">
    <path id="Path_261" data-name="Path 261" d="M22.08,10.609H2.483a.29.29,0,0,1-.29-.29V8.2a.29.29,0,0,1,.14-.248l9.8-5.915a.29.29,0,0,1,.3,0l9.8,5.915a.29.29,0,0,1,.14.248v2.114A.29.29,0,0,1,22.08,10.609Zm-19.307-.58H21.791V8.368L12.28,2.629,2.773,8.368Z" transform="translate(-0.137)" fill="#0c8bbd"/>
    <path id="Path_262" data-name="Path 262" d="M32.753,15.818a1.734,1.734,0,1,1,1.734-1.734A1.734,1.734,0,0,1,32.753,15.818Zm0-2.888a1.154,1.154,0,1,0,1.154,1.154A1.154,1.154,0,0,0,32.753,12.93Z" transform="translate(-20.608 -7.351)" fill="#0c8bbd"/>
    <path id="Path_263" data-name="Path 263" d="M55.881,32.111H52.8a.627.627,0,0,1-.626-.626V29.99a.29.29,0,0,1,.29-.29h3.757a.29.29,0,0,1,.29.29v1.5a.627.627,0,0,1-.626.625Zm-3.13-1.832v1.205a.047.047,0,0,0,.046.047h3.084a.047.047,0,0,0,.046-.047v-1.2Z" transform="translate(-35.629 -19.671)" fill="#0c8bbd"/>
    <path id="Path_264" data-name="Path 264" d="M57.086,42.451H54.528a.29.29,0,0,1-.29-.29V36.306a.29.29,0,0,1,.29-.29h2.558a.29.29,0,0,1,.29.29v5.855A.29.29,0,0,1,57.086,42.451Zm-2.268-.58H56.8V36.6H54.818Z" transform="translate(-37.097 -24.156)" fill="#0c8bbd"/>
    <path id="Path_265" data-name="Path 265" d="M56.218,58.628H52.461a.29.29,0,0,1-.29-.29v-1.5a.627.627,0,0,1,.626-.626h3.084a.627.627,0,0,1,.626.626v1.5a.29.29,0,0,1-.29.29Zm-3.467-.58h3.177V56.842a.047.047,0,0,0-.046-.047H52.8a.047.047,0,0,0-.046.047Z" transform="translate(-35.629 -38.502)" fill="#0c8bbd"/>
    <path id="Path_266" data-name="Path 266" d="M33.23,32.111H30.146a.627.627,0,0,1-.626-.626V29.99a.29.29,0,0,1,.29-.29h3.756a.29.29,0,0,1,.29.29v1.5a.627.627,0,0,1-.626.625ZM30.1,30.28v1.205a.047.047,0,0,0,.046.047H33.23a.047.047,0,0,0,.046-.047V30.28Z" transform="translate(-19.543 -19.671)" fill="#0c8bbd"/>
    <path id="Path_267" data-name="Path 267" d="M34.44,42.451H31.89a.29.29,0,0,1-.29-.29V36.306a.29.29,0,0,1,.29-.29H34.44a.29.29,0,0,1,.29.29v5.855A.29.29,0,0,1,34.44,42.451Zm-2.261-.58h1.971V36.6H32.18Z" transform="translate(-21.021 -24.156)" fill="#0c8bbd"/>
    <path id="Path_268" data-name="Path 268" d="M33.566,58.628H29.81a.29.29,0,0,1-.29-.29v-1.5a.627.627,0,0,1,.626-.626H33.23a.627.627,0,0,1,.626.626v1.5A.29.29,0,0,1,33.566,58.628Zm-3.467-.58h3.177V56.842a.047.047,0,0,0-.046-.047H30.146a.047.047,0,0,0-.046.047Z" transform="translate(-19.543 -38.502)" fill="#0c8bbd"/>
    <path id="Path_269" data-name="Path 269" d="M11.578,32.111H8.494a.627.627,0,0,1-.626-.626V29.99a.29.29,0,0,1,.29-.29h3.757a.29.29,0,0,1,.29.29v1.5a.627.627,0,0,1-.626.625ZM8.448,30.28v1.205a.047.047,0,0,0,.046.047h3.084a.047.047,0,0,0,.046-.047V30.28Z" transform="translate(-4.167 -19.671)" fill="#0c8bbd"/>
    <path id="Path_270" data-name="Path 270" d="M12.769,42.451H10.19a.29.29,0,0,1-.29-.29V36.306a.29.29,0,0,1,.29-.29h2.58a.29.29,0,0,1,.29.29v5.855A.29.29,0,0,1,12.769,42.451Zm-2.29-.58h2V36.6h-2Z" transform="translate(-5.61 -24.156)" fill="#0c8bbd"/>
    <path id="Path_271" data-name="Path 271" d="M11.915,58.628H8.158a.29.29,0,0,1-.29-.29v-1.5a.627.627,0,0,1,.626-.626h3.084a.627.627,0,0,1,.626.626v1.5a.29.29,0,0,1-.29.29Zm-3.467-.58h3.177V56.842a.047.047,0,0,0-.046-.047H8.494a.047.047,0,0,0-.046.047Z" transform="translate(-4.167 -38.502)" fill="#0c8bbd"/>
    <path id="Path_272" data-name="Path 272" d="M22,65.279H2.29a.29.29,0,0,1-.29-.29V62.826a.29.29,0,0,1,.29-.29H22a.29.29,0,0,1,.29.29v2.163A.29.29,0,0,1,22,65.279ZM2.58,64.7h19.13V63.116H2.58Z" transform="translate(0 -42.99)" fill="#0c8bbd"/>
  </g>
</svg>
