<svg id="browser" xmlns="http://www.w3.org/2000/svg" width="18" height="16.172" viewBox="0 0 18 16.172">
  <path id="Path_5" data-name="Path 5" d="M146.7,40.352a.352.352,0,1,1-.352-.352A.352.352,0,0,1,146.7,40.352Zm0,0" transform="translate(-140.867 -38.594)" fill="#0c8bbd"/>
  <path id="Path_6" data-name="Path 6" d="M106.7,40.352a.352.352,0,1,1-.352-.352A.352.352,0,0,1,106.7,40.352Zm0,0" transform="translate(-102.273 -38.594)" fill="#0c8bbd"/>
  <path id="Path_7" data-name="Path 7" d="M66.7,40.352A.352.352,0,1,1,66.352,40,.352.352,0,0,1,66.7,40.352Zm0,0" transform="translate(-63.68 -38.594)" fill="#0c8bbd"/>
  <path id="Path_8" data-name="Path 8" d="M79.008,140H66.352a.352.352,0,0,0-.352.352v2.109a.352.352,0,0,0,.352.352H79.008a.352.352,0,0,0,.352-.352v-2.109A.352.352,0,0,0,79.008,140Zm-.352,2.109H66.7V140.7H78.656Zm0,0" transform="translate(-63.68 -135.078)" fill="#0c8bbd"/>
  <path id="Path_9" data-name="Path 9" d="M72.68,260H66.352a.352.352,0,0,0-.352.352v4.219a.352.352,0,0,0,.352.352H72.68a.352.352,0,0,0,.352-.352v-4.219A.352.352,0,0,0,72.68,260Zm-.352,4.219H66.7V260.7h5.625Zm0,0" transform="translate(-63.68 -250.859)" fill="#0c8bbd"/>
  <path id="Path_10" data-name="Path 10" d="M310.57,260h-4.219a.352.352,0,0,0-.352.352v4.219a.352.352,0,0,0,.352.352h4.219a.352.352,0,0,0,.352-.352v-4.219A.352.352,0,0,0,310.57,260Zm-.352,4.219H306.7V260.7h3.516Zm0,0" transform="translate(-295.242 -250.859)" fill="#0c8bbd"/>
  <path id="Path_11" data-name="Path 11" d="M246.7.352A.352.352,0,1,1,246.352,0,.352.352,0,0,1,246.7.352Zm0,0" transform="translate(-237.352)" fill="#0c8bbd"/>
  <path id="Path_12" data-name="Path 12" d="M16.945,0H10.582a.352.352,0,0,0,0,.7h6.363a.352.352,0,0,1,.352.352V2.813H.7V1.055A.352.352,0,0,1,1.055.7H7.418a.352.352,0,0,0,0-.7H1.055A1.056,1.056,0,0,0,0,1.055V15.117a1.056,1.056,0,0,0,1.055,1.055H16.945A1.056,1.056,0,0,0,18,15.117V1.055A1.056,1.056,0,0,0,16.945,0Zm0,15.469H1.055A.352.352,0,0,1,.7,15.117V3.516H17.3v11.6A.352.352,0,0,1,16.945,15.469Zm0,0" fill="#0c8bbd"/>
</svg>
