<svg xmlns="http://www.w3.org/2000/svg" width="24.786" height="24.755" viewBox="0 0 24.786 24.755">
  <g id="help" transform="translate(0.181 0.15)">
    <path id="Path_278" data-name="Path 278" d="M24.425,16.529a7.913,7.913,0,0,0-5.781-7.608,9.326,9.326,0,1,0-17.35,5.145L.034,18.618l4.551-1.259a9.292,9.292,0,0,0,4.336,1.284,7.9,7.9,0,0,0,11.625,4.684L24.39,24.39l-1.063-3.843a7.867,7.867,0,0,0,1.1-4.017ZM4.812,15.812l-2.725.754.754-2.725-.172-.269A7.892,7.892,0,1,1,5.08,15.983Zm17.526,6.526-2.022-.559-.27.176A6.466,6.466,0,0,1,10.4,18.59,9.344,9.344,0,0,0,18.59,10.4a6.467,6.467,0,0,1,3.364,9.645l-.176.27Zm0,0" fill="#fff" stroke="#01bdd9" stroke-width="0.3"/>
    <path id="Path_279" data-name="Path 279" d="M180.5,271h1.431v1.431H180.5Zm0,0" transform="translate(-171.889 -258.072)" fill="#fff" stroke="#01bcd9" stroke-width="0.3"/>
    <path id="Path_280" data-name="Path 280" d="M139.793,92.862a1.416,1.416,0,0,1-.466,1.056l-1.681,1.538V97.2h1.431V96.087l1.216-1.113a2.862,2.862,0,1,0-4.794-2.112h1.431a1.431,1.431,0,1,1,2.862,0Zm0,0" transform="translate(-129.036 -85.707)" fill="#fff" stroke="#01bcd9" stroke-width="0.3"/>
  </g>
</svg>
