<svg xmlns="http://www.w3.org/2000/svg" width="18.574" height="18.574" viewBox="0 0 18.574 18.574">
  <g id="open-box" transform="translate(-0.001 0)">
    <path id="Path_251" data-name="Path 251" d="M18.575,5.078a.275.275,0,0,0-.126-.225L12.7,1.209a.272.272,0,0,0-.092-.037L6.779.006a.273.273,0,0,0-.2.5l2.606,1.65-2.1.623L5.31,1.65a.272.272,0,0,0-.295,0L2.861,3.063a.272.272,0,0,0,.3.455L5.167,2.2l5.249,3.323L6.024,8.4.776,5.078,1.958,4.3a.272.272,0,0,0-.3-.455L.124,4.855A.276.276,0,0,0,0,5.082V14.66a.272.272,0,0,0,.127.23l5.754,3.643a.277.277,0,0,0,.223.031l9.974-2.96a.272.272,0,0,0-.155-.522L6.3,17.938V8.929L18.031,5.447v9.01l-.743.22a.272.272,0,0,0,.155.522l.938-.278a.272.272,0,0,0,.195-.261V5.082S18.575,5.079,18.575,5.078ZM12.447,1.7l4.472,2.832-4.337-.868L8.11.828Zm-1.383,3.6L7.7,3.162,9.8,2.54l2.537,1.606a.272.272,0,0,0,.092.037l4.748.951-9.445,2.8,3.339-2.185a.272.272,0,0,0,0-.458ZM.545,5.576l5.21,3.3v8.933l-5.21-3.3Z" fill="#0c8bbd"/>
    <path id="Path_252" data-name="Path 252" d="M210.573,292.106a.272.272,0,0,0-.24-.043l-9.205,2.739a.272.272,0,0,0-.194.261v2.655a.272.272,0,0,0,.35.261l9.205-2.739a.272.272,0,0,0,.194-.261v-2.655A.272.272,0,0,0,210.573,292.106Zm-.435,2.67-8.661,2.577v-2.087l8.661-2.577Z" transform="translate(-193.643 -281.457)" fill="#0c8bbd"/>
    <path id="Path_253" data-name="Path 253" d="M284.451,370.686a.272.272,0,0,0,.272-.272v-.771a.272.272,0,0,0-.544,0v.771A.272.272,0,0,0,284.451,370.686Z" transform="translate(-273.869 -355.981)" fill="#0c8bbd"/>
    <path id="Path_254" data-name="Path 254" d="M383.982,340.179a.272.272,0,0,0,.272-.272v-.771a.272.272,0,0,0-.544,0v.771A.272.272,0,0,0,383.982,340.179Z" transform="translate(-369.789 -326.581)" fill="#0c8bbd"/>
    <path id="Path_255" data-name="Path 255" d="M406.118,334.179a.272.272,0,0,0,.272-.272v-.771a.272.272,0,0,0-.544,0v.771A.272.272,0,0,0,406.118,334.179Z" transform="translate(-391.122 -320.799)" fill="#0c8bbd"/>
    <path id="Path_256" data-name="Path 256" d="M428.254,328.179a.272.272,0,0,0,.272-.272v-.771a.272.272,0,0,0-.544,0v.771A.272.272,0,0,0,428.254,328.179Z" transform="translate(-412.455 -315.016)" fill="#0c8bbd"/>
    <path id="Path_257" data-name="Path 257" d="M228.107,387.45a.272.272,0,0,0,.272-.272v-.771a.272.272,0,0,0-.544,0v.771A.272.272,0,0,0,228.107,387.45Z" transform="translate(-219.569 -372.137)" fill="#0c8bbd"/>
    <path id="Path_258" data-name="Path 258" d="M249.785,382.116a.272.272,0,0,0,.272-.272v-.771a.272.272,0,0,0-.544,0v.771A.272.272,0,0,0,249.785,382.116Z" transform="translate(-240.46 -366.996)" fill="#0c8bbd"/>
    <path id="Path_259" data-name="Path 259" d="M323.615,358.578a.272.272,0,0,0,.272-.272v-.771a.272.272,0,0,0-.544,0v.771A.272.272,0,0,0,323.615,358.578Z" transform="translate(-311.612 -344.312)" fill="#0c8bbd"/>
    <path id="Path_260" data-name="Path 260" d="M344.818,353.148a.272.272,0,0,0,.272-.272v-.771a.272.272,0,0,0-.544,0v.771A.272.272,0,0,0,344.818,353.148Z" transform="translate(-332.046 -339.079)" fill="#0c8bbd"/>
  </g>
</svg>
