<svg xmlns="http://www.w3.org/2000/svg" width="24.819" height="27.057" viewBox="0 0 24.819 27.057">
  <g id="Group_200" data-name="Group 200" transform="translate(-2648 -4925.124)">
    <rect id="Rectangle_93" data-name="Rectangle 93" width="21" height="25" transform="translate(2648 4927)" fill="none"/>
    <g id="bell_1_" data-name="bell (1)" transform="translate(2655.834 4925.124) rotate(20)">
      <g id="Group_173" data-name="Group 173" transform="translate(8.537 4.312)">
        <g id="Group_172" data-name="Group 172">
          <path id="Path_275" data-name="Path 275" d="M.5,0A.5.5,0,1,0,1,.5.5.5,0,0,0,.5,0Z" fill="#fff"/>
        </g>
      </g>
      <g id="Group_175" data-name="Group 175" transform="translate(0 0)">
        <g id="Group_174" data-name="Group 174">
          <path id="Path_276" data-name="Path 276" d="M17.912,18.561l-1.535-2.215a5.981,5.981,0,0,1-.827-3.02V8.244a5.87,5.87,0,0,0-4.91-5.467,1.581,1.581,0,0,0,.4-1.041A1.886,1.886,0,0,0,9.038,0a1.886,1.886,0,0,0-2,1.736,1.581,1.581,0,0,0,.4,1.041,5.87,5.87,0,0,0-4.91,5.467v5.082a5.981,5.981,0,0,1-.827,3.02L.163,18.561c-.453.653.089,1.484.97,1.484H6.074a2.918,2.918,0,0,0,2.963,2.169A2.918,2.918,0,0,0,12,20.045h4.941C17.822,20.045,18.366,19.215,17.912,18.561ZM9.038.868a.943.943,0,0,1,1,.868.943.943,0,0,1-1,.868.943.943,0,0,1-1-.868A.943.943,0,0,1,9.038.868ZM3.527,13.326V8.244C3.527,5.612,6,3.471,9.038,3.471s5.511,2.141,5.511,4.773v5.082a7,7,0,0,0,.83,3.248H2.7A7,7,0,0,0,3.527,13.326Zm5.511,8.021A1.981,1.981,0,0,1,7.1,20.041h3.881A1.981,1.981,0,0,1,9.038,21.347Zm7.9-2.169H1.133c-.1,0-.163-.094-.111-.17l1.085-1.566H15.968l1.085,1.566C17.105,19.083,17.044,19.178,16.942,19.178Z" fill="#fff"/>
        </g>
      </g>
      <g id="Group_177" data-name="Group 177" transform="translate(10.477 4.616)">
        <g id="Group_176" data-name="Group 176">
          <path id="Path_277" data-name="Path 277" d="M.744.063A.5.5,0,1,0,.258.939a3.514,3.514,0,0,1,1.81,3.068.5.5,0,1,0,1,0A4.516,4.516,0,0,0,.744.063Z" fill="#fff"/>
        </g>
      </g>
    </g>
  </g>
</svg>
