<svg xmlns="http://www.w3.org/2000/svg" width="21.5" height="20.036" viewBox="0 0 21.5 20.036">
  <g id="box" transform="translate(-9 -25.634)">
    <path id="Path_19" data-name="Path 19" d="M29.191,34.267H28.107a1.068,1.068,0,0,0-1.019-.783H25.93v-2.83a.3.3,0,0,0-.146-.264l-8.164-4.715a.3.3,0,0,0-.3,0L9.151,30.39A.3.3,0,0,0,9,30.654v9.431a.3.3,0,0,0,.152.264l8.167,4.715a.3.3,0,0,0,.152.041.32.32,0,0,0,.157-.041l4.3-2.479v1.792a1.29,1.29,0,0,0,1.3,1.293h5.964A1.3,1.3,0,0,0,30.5,44.377v-8.8A1.314,1.314,0,0,0,29.191,34.267ZM27.1,34.093a.442.442,0,0,1,.442.442v.03a.442.442,0,0,1-.442.442h-1.77a.442.442,0,0,1-.442-.442v-.03a.442.442,0,0,1,.442-.442Zm-9.627-7.8,3.394,1.959-7.557,4.363L9.915,30.653Zm-.29,17.982L9.609,39.909V31.181l7.573,4.364Zm.29-9.255-3.554-2.052L21.475,28.6l3.555,2.052Zm4.454.564v6.3l-4.135,2.391V35.544l7.529-4.364v2.3h.009a1.068,1.068,0,0,0-1.019.783H23.227A1.307,1.307,0,0,0,21.926,35.581Zm7.965,8.8a.687.687,0,0,1-.7.684H23.227a.68.68,0,0,1-.692-.684v-8.8a.7.7,0,0,1,.692-.7h1.1a1.042,1.042,0,0,0,1.007.74h1.757a1.042,1.042,0,0,0,1.007-.74h1.1a.7.7,0,0,1,.7.7Z" fill="#0c8bbd"/>
    <path id="Path_20" data-name="Path 20" d="M337.3,280.046h.319a.3.3,0,1,0,0-.609h-.012v-.827h.84a.293.293,0,0,0,.29.206.305.305,0,0,0,.306-.3v-.205a.309.309,0,0,0-.308-.306H337.3a.3.3,0,0,0-.3.306v1.435a.3.3,0,0,0,.3.3Z" transform="translate(-313.725 -241.383)" fill="#0c8bbd"/>
    <path id="Path_21" data-name="Path 21" d="M337.3,344.046h1.436a.3.3,0,0,0,.3-.3V342.3a.3.3,0,0,0-.3-.3H337.3a.3.3,0,0,0-.3.3v1.436A.3.3,0,0,0,337.3,344.046Zm.3-1.436h.827v.827h-.827Z" transform="translate(-313.725 -302.597)" fill="#0c8bbd"/>
    <path id="Path_22" data-name="Path 22" d="M337.621,407.436h-.012v-.827h.824a.306.306,0,1,0,.612,0v-.294a.318.318,0,0,0-.308-.316H337.3a.313.313,0,0,0-.3.316v1.435a.294.294,0,0,0,.3.294h.319a.3.3,0,1,0,0-.609Z" transform="translate(-313.724 -363.812)" fill="#0c8bbd"/>
    <path id="Path_23" data-name="Path 23" d="M356.038,284.628l-.892.892-.271-.271a.3.3,0,1,0-.431.431l.487.487a.3.3,0,0,0,.431,0l1.108-1.108a.3.3,0,0,0-.431-.431Z" transform="translate(-330.324 -247.637)" fill="#0c8bbd"/>
    <path id="Path_24" data-name="Path 24" d="M356.038,413.877l-.892.892-.271-.271a.3.3,0,1,0-.431.431l.487.487a.3.3,0,0,0,.431,0l1.108-1.108a.3.3,0,0,0-.431-.431Z" transform="translate(-330.324 -371.26)" fill="#0c8bbd"/>
    <path id="Path_25" data-name="Path 25" d="M416.109,295H414.2a.3.3,0,0,0,0,.609h1.914a.3.3,0,0,0,0-.609Z" transform="translate(-387.269 -257.643)" fill="#0c8bbd"/>
    <path id="Path_26" data-name="Path 26" d="M416.109,359H414.2a.3.3,0,0,0,0,.609h1.914a.3.3,0,1,0,0-.609Z" transform="translate(-387.269 -318.857)" fill="#0c8bbd"/>
    <path id="Path_27" data-name="Path 27" d="M416.109,423H414.2a.3.3,0,0,0,0,.609h1.914a.3.3,0,1,0,0-.609Z" transform="translate(-387.269 -380.072)" fill="#0c8bbd"/>
  </g>
</svg>
