<svg xmlns="http://www.w3.org/2000/svg" width="16.504" height="22" viewBox="0 0 16.504 22">
  <g id="clipboard" transform="translate(-63.958)">
    <g id="Group_30" data-name="Group 30" transform="translate(70.863 5.048)">
      <g id="Group_29" data-name="Group 29">
        <g id="Group_22" data-name="Group 22">
          <g id="Group_20" data-name="Group 20" transform="translate(0 1.654)">
            <path id="Path_36" data-name="Path 36" d="M228.479,156.62h-3.5a.322.322,0,1,1,0-.645h3.5a.322.322,0,1,1,0,.645Z" transform="translate(-224.657 -155.975)" fill="#0c8bbd"/>
          </g>
          <g id="Group_21" data-name="Group 21">
            <path id="Path_37" data-name="Path 37" d="M231.979,118.123h-7a.322.322,0,0,1,0-.645h7a.322.322,0,0,1,0,.645Z" transform="translate(-224.657 -117.478)" fill="#0c8bbd"/>
          </g>
        </g>
        <g id="Group_25" data-name="Group 25" transform="translate(0 5.401)">
          <g id="Group_23" data-name="Group 23" transform="translate(0 1.654)">
            <path id="Path_38" data-name="Path 38" d="M228.479,282.307h-3.5a.322.322,0,1,1,0-.645h3.5a.322.322,0,1,1,0,.645Z" transform="translate(-224.657 -281.662)" fill="#0c8bbd"/>
          </g>
          <g id="Group_24" data-name="Group 24">
            <path id="Path_39" data-name="Path 39" d="M231.979,243.809h-7a.322.322,0,1,1,0-.645h7a.322.322,0,1,1,0,.645Z" transform="translate(-224.657 -243.164)" fill="#0c8bbd"/>
          </g>
        </g>
        <g id="Group_28" data-name="Group 28" transform="translate(0 10.801)">
          <g id="Group_26" data-name="Group 26" transform="translate(0 1.654)">
            <path id="Path_40" data-name="Path 40" d="M228.479,407.994h-3.5a.322.322,0,0,1,0-.645h3.5a.322.322,0,1,1,0,.645Z" transform="translate(-224.657 -407.349)" fill="#0c8bbd"/>
          </g>
          <g id="Group_27" data-name="Group 27" transform="translate(0 0)">
            <path id="Path_41" data-name="Path 41" d="M231.979,369.5h-7a.322.322,0,1,1,0-.645h7a.322.322,0,1,1,0,.645Z" transform="translate(-224.657 -368.851)" fill="#0c8bbd"/>
          </g>
        </g>
      </g>
    </g>
    <g id="Group_31" data-name="Group 31" transform="translate(68.462 0)">
      <path id="Path_42" data-name="Path 42" d="M175.324,3.036h-5.573a.962.962,0,0,1-.961-.961V.961A.962.962,0,0,1,169.751,0h5.573a.962.962,0,0,1,.961.961V2.075A.962.962,0,0,1,175.324,3.036ZM169.751.645a.317.317,0,0,0-.316.316V2.075a.316.316,0,0,0,.316.316h5.573a.317.317,0,0,0,.316-.316V.961a.317.317,0,0,0-.316-.316Z" transform="translate(-168.79 0)" fill="#0c8bbd"/>
    </g>
    <g id="Group_35" data-name="Group 35" transform="translate(65.913 4.616)">
      <g id="Group_32" data-name="Group 32">
        <path id="Path_43" data-name="Path 43" d="M111.745,110.587h-1.432a.866.866,0,0,1-.865-.865v-1.432a.866.866,0,0,1,.865-.865h1.432a.866.866,0,0,1,.865.865v1.432A.866.866,0,0,1,111.745,110.587Zm-1.432-2.518a.221.221,0,0,0-.221.221v1.432a.221.221,0,0,0,.221.221h1.432a.221.221,0,0,0,.221-.221v-1.432a.221.221,0,0,0-.221-.221Z" transform="translate(-109.448 -107.424)" fill="#0c8bbd"/>
      </g>
      <g id="Group_33" data-name="Group 33" transform="translate(0 5.401)">
        <path id="Path_44" data-name="Path 44" d="M111.745,236.273h-1.432a.866.866,0,0,1-.865-.865v-1.432a.866.866,0,0,1,.865-.865h1.432a.866.866,0,0,1,.865.865v1.432A.866.866,0,0,1,111.745,236.273Zm-1.432-2.518a.221.221,0,0,0-.221.221v1.432a.221.221,0,0,0,.221.221h1.432a.221.221,0,0,0,.221-.221v-1.432a.221.221,0,0,0-.221-.221Z" transform="translate(-109.448 -233.11)" fill="#0c8bbd"/>
      </g>
      <g id="Group_34" data-name="Group 34" transform="translate(0 10.801)">
        <path id="Path_45" data-name="Path 45" d="M111.745,361.959h-1.432a.866.866,0,0,1-.865-.865v-1.432a.866.866,0,0,1,.865-.865h1.432a.866.866,0,0,1,.865.865v1.432A.866.866,0,0,1,111.745,361.959Zm-1.432-2.518a.221.221,0,0,0-.221.221v1.432a.221.221,0,0,0,.221.221h1.432a.221.221,0,0,0,.221-.221v-1.432a.221.221,0,0,0-.221-.221Z" transform="translate(-109.448 -358.796)" fill="#0c8bbd"/>
      </g>
    </g>
    <g id="Group_36" data-name="Group 36" transform="translate(63.958 1.196)">
      <path id="Path_46" data-name="Path 46" d="M79.065,48.63H65.354a1.4,1.4,0,0,1-1.4-1.4V29.222a1.4,1.4,0,0,1,1.4-1.4h1.931a.322.322,0,1,1,0,.645H65.354a.752.752,0,0,0-.752.752V47.234a.752.752,0,0,0,.752.752H79.065a.752.752,0,0,0,.752-.752V29.222a.752.752,0,0,0-.752-.752H77.134a.322.322,0,1,1,0-.645h1.931a1.4,1.4,0,0,1,1.4,1.4V47.234A1.4,1.4,0,0,1,79.065,48.63Z" transform="translate(-63.958 -27.826)" fill="#0c8bbd"/>
    </g>
  </g>
</svg>
