<svg xmlns="http://www.w3.org/2000/svg" width="18.172" height="18.938" viewBox="0 0 18.172 18.938">
  <g id="discount" transform="translate(-10.359 0.002)">
    <g id="Group_12" data-name="Group 12" transform="translate(10.359 -0.002)">
      <g id="Group_11" data-name="Group 11" transform="translate(0)">
        <path id="Path_28" data-name="Path 28" d="M27.655,9.712a.555.555,0,0,1,0-.491l.706-1.445a1.644,1.644,0,0,0-.709-2.183L26.231,4.84a.555.555,0,0,1-.288-.4l-.278-1.584A1.644,1.644,0,0,0,23.807,1.51l-1.592.225a.555.555,0,0,1-.467-.152L20.593.465a1.644,1.644,0,0,0-2.3,0L17.141,1.583a.555.555,0,0,1-.467.152L15.082,1.51a1.644,1.644,0,0,0-1.857,1.349l-.278,1.584a.555.555,0,0,1-.288.4l-1.421.754a1.644,1.644,0,0,0-.709,2.183l.706,1.445a.555.555,0,0,1,0,.491l-.706,1.445a1.644,1.644,0,0,0,.709,2.183l1.421.754a.555.555,0,0,1,.288.4l.278,1.584a1.643,1.643,0,0,0,1.621,1.366,1.689,1.689,0,0,0,.236-.017l1.592-.225a.555.555,0,0,1,.467.152L18.3,18.469a1.644,1.644,0,0,0,2.3,0l1.156-1.118a.556.556,0,0,1,.467-.152l1.592.225a1.644,1.644,0,0,0,1.857-1.349l.278-1.584a.555.555,0,0,1,.288-.4l1.421-.754a1.644,1.644,0,0,0,.709-2.183Zm-.515,2.663-1.421.754a1.64,1.64,0,0,0-.852,1.173l-.278,1.584a.556.556,0,0,1-.628.457l-1.592-.225a1.64,1.64,0,0,0-1.379.448l-1.156,1.118a.556.556,0,0,1-.777,0L17.9,16.566a1.639,1.639,0,0,0-1.144-.465,1.677,1.677,0,0,0-.235.017l-1.592.225a.556.556,0,0,1-.628-.457L14.023,14.3a1.64,1.64,0,0,0-.852-1.173l-1.421-.754a.556.556,0,0,1-.24-.739l.706-1.445a1.64,1.64,0,0,0,0-1.45L11.51,7.3a.556.556,0,0,1,.24-.739L13.171,5.8a1.64,1.64,0,0,0,.852-1.173L14.3,3.048a.556.556,0,0,1,.628-.457l1.592.225A1.64,1.64,0,0,0,17.9,2.368L19.056,1.25a.556.556,0,0,1,.777,0l1.156,1.118a1.64,1.64,0,0,0,1.379.448l1.592-.225a.556.556,0,0,1,.628.457l.278,1.584A1.64,1.64,0,0,0,25.719,5.8l1.421.754a.556.556,0,0,1,.24.739l-.706,1.445a1.64,1.64,0,0,0,0,1.45l.706,1.445A.556.556,0,0,1,27.14,12.376Z" transform="translate(-10.359 0.002)" fill="#0c8bbd"/>
      </g>
    </g>
    <g id="Group_14" data-name="Group 14" transform="translate(15.294 5.317)">
      <g id="Group_13" data-name="Group 13">
        <path id="Path_29" data-name="Path 29" d="M151.932,143.951a.546.546,0,0,0-.772,0l-7.209,7.209a.546.546,0,1,0,.772.772l7.209-7.209A.546.546,0,0,0,151.932,143.951Z" transform="translate(-143.791 -143.791)" fill="#0c8bbd"/>
      </g>
    </g>
    <g id="Group_16" data-name="Group 16" transform="translate(15.258 4.552)">
      <g id="Group_15" data-name="Group 15">
        <path id="Path_30" data-name="Path 30" d="M144.8,123.116a2,2,0,1,0,2,2A2,2,0,0,0,144.8,123.116Zm0,2.913a.91.91,0,1,1,.91-.91A.911.911,0,0,1,144.8,126.029Z" transform="translate(-142.802 -123.116)" fill="#0c8bbd"/>
      </g>
    </g>
    <g id="Group_18" data-name="Group 18" transform="translate(19.627 10.377)">
      <g id="Group_17" data-name="Group 17">
        <path id="Path_31" data-name="Path 31" d="M262.924,280.61a2,2,0,1,0,2,2A2,2,0,0,0,262.924,280.61Zm0,2.913a.91.91,0,1,1,.91-.91A.911.911,0,0,1,262.924,283.523Z" transform="translate(-260.922 -280.61)" fill="#0c8bbd"/>
      </g>
    </g>
  </g>
</svg>
