<svg xmlns="http://www.w3.org/2000/svg" width="12.506" height="12.507" viewBox="0 0 12.506 12.507">
  <g id="customer-support_1_" data-name="customer-support (1)" transform="translate(-0.274 0)">
    <path id="Path_47" data-name="Path 47" d="M.341,1.224l.833,1.458a.208.208,0,0,0,.13.1l.778.194L4.749,5.642l.295-.295L2.335,2.639a.208.208,0,0,0-.1-.055L1.491,2.4.782,1.154,1.39.546l1.243.71L2.821,2a.208.208,0,0,0,.055.1L5.584,4.809l.295-.295L3.212,1.847,3.017,1.07a.209.209,0,0,0-.1-.13L1.46.106A.208.208,0,0,0,1.21.14L.377.973a.208.208,0,0,0-.036.25Zm0,0" transform="translate(-0.04 -0.078)" fill="#0c8bbd"/>
    <path id="Path_48" data-name="Path 48" d="M178.86,174.014l-4.584,4.584-.295-.295,4.584-4.584Zm0,0" transform="translate(-169.896 -169.908)" fill="#0c8bbd"/>
    <path id="Path_49" data-name="Path 49" d="M50.015,398.937a.208.208,0,0,0-.179-.1h-1.25a.208.208,0,0,0-.179.1l-.625,1.042a.208.208,0,0,0,0,.215l.625,1.042a.208.208,0,0,0,.179.1h1.25a.209.209,0,0,0,.179-.1l.625-1.042a.208.208,0,0,0,0-.215Zm-.3,1.982H48.7l-.5-.833.5-.834h1.014l.5.834Zm0,0" transform="translate(-46.438 -390.084)" fill="#0c8bbd"/>
    <path id="Path_50" data-name="Path 50" d="M10.275,5A2.492,2.492,0,0,0,12.7,1.9a.208.208,0,0,0-.349-.1l-1.3,1.3-1.029-.343L9.68,1.724l1.3-1.3a.208.208,0,0,0-.1-.35A2.493,2.493,0,0,0,7.774,2.5a2.445,2.445,0,0,0,.051.488L3.262,7.552A2.458,2.458,0,0,0,2.774,7.5a2.5,2.5,0,1,0,2.5,2.5,2.452,2.452,0,0,0-.051-.488L6.316,8.421l.478.478a.208.208,0,0,0,.295,0l.1-.1a.234.234,0,0,1,.331.33h0l-.1.1a.208.208,0,0,0,0,.295L9.9,12.009a1.682,1.682,0,1,0,2.389-2.367l-.011-.011L9.8,7.145a.208.208,0,0,0-.295,0l-.1.1a.234.234,0,0,1-.331-.33h0l.1-.1a.208.208,0,0,0,0-.295l-.478-.478L9.786,4.95A2.452,2.452,0,0,0,10.275,5Zm.819,7.084A1.266,1.266,0,0,1,10.65,12l1.627-1.627a1.264,1.264,0,0,1-1.184,1.708ZM8.733,6.67a.65.65,0,0,0,.917.915l2.338,2.34c.025.025.049.052.072.08l-1.781,1.781c-.027-.023-.054-.047-.08-.072l-2.34-2.34a.65.65,0,0,0-.917-.916l-.333-.333L8.4,6.337Zm.841-2.1L4.848,9.3a.209.209,0,0,0-.055.2A2.1,2.1,0,1,1,3.277,7.983a.21.21,0,0,0,.2-.055L8.2,3.2A.208.208,0,0,0,8.256,3,2.073,2.073,0,0,1,10.393.42l-1.1,1.1a.208.208,0,0,0-.05.213l.417,1.25a.209.209,0,0,0,.132.132l1.25.417a.208.208,0,0,0,.213-.05l1.1-1.1c0,.04,0,.079,0,.118A2.073,2.073,0,0,1,9.771,4.519a.209.209,0,0,0-.2.055h0Zm0,0" transform="translate(0 0)" fill="#0c8bbd"/>
    <path id="Path_51" data-name="Path 51" d="M385.268,384.708l-.295.295-2.083-2.083.295-.295Zm0,0" transform="translate(-374.221 -374.229)" fill="#0c8bbd"/>
  </g>
</svg>
