<svg xmlns="http://www.w3.org/2000/svg" width="22.607" height="22.608" viewBox="0 0 22.607 22.608">
  <g id="customer-support_1_" data-name="customer-support (1)" transform="translate(0.11 0.11)">
    <path id="Path_47" data-name="Path 47" d="M.362,2.112,1.842,4.7a.37.37,0,0,0,.231.175l1.381.345L8.19,9.959l.523-.523L3.9,4.626a.369.369,0,0,0-.172-.1L2.4,4.2,1.144,1.989,2.225.908,4.432,2.17,4.765,3.5a.369.369,0,0,0,.1.172l4.81,4.81.523-.523L5.46,3.219l-.345-1.38a.371.371,0,0,0-.175-.232L2.349.128A.37.37,0,0,0,1.9.187L.425,1.667a.37.37,0,0,0-.063.445Zm0,0" transform="translate(-0.313 -0.076)" fill="#fff" stroke="#fff" stroke-width="0.2"/>
    <path id="Path_48" data-name="Path 48" d="M182.645,174.243l-8.14,8.14-.523-.523,8.14-8.14Zm0,0" transform="translate(-167.212 -166.95)" fill="#fff" stroke="#fff" stroke-width="0.2"/>
    <path id="Path_49" data-name="Path 49" d="M51.771,399.015a.37.37,0,0,0-.317-.179h-2.22a.37.37,0,0,0-.317.179l-1.11,1.85a.37.37,0,0,0,0,.381l1.11,1.85a.37.37,0,0,0,.317.18h2.22a.37.37,0,0,0,.317-.179l1.11-1.85a.37.37,0,0,0,0-.381Zm-.527,3.521h-1.8l-.888-1.48.888-1.48h1.8l.888,1.48Zm0,0" transform="translate(-45.903 -383.294)" fill="#fff" stroke="#fff" stroke-width="0.2"/>
    <path id="Path_50" data-name="Path 50" d="M18.034,8.881a4.425,4.425,0,0,0,4.3-5.513.37.37,0,0,0-.62-.172l-2.3,2.3-1.827-.609-.609-1.827,2.3-2.3a.37.37,0,0,0-.174-.621,4.427,4.427,0,0,0-5.513,4.3,4.343,4.343,0,0,0,.09.867l-8.1,8.1a4.365,4.365,0,0,0-.867-.09,4.44,4.44,0,1,0,4.44,4.44,4.354,4.354,0,0,0-.09-.867L11,14.954l.848.848a.37.37,0,0,0,.523,0l.185-.185a.415.415,0,0,1,.588.586h0l-.185.185a.37.37,0,0,0,0,.523l4.414,4.414a2.986,2.986,0,1,0,4.242-4.2L21.6,17.1,17.186,12.69a.37.37,0,0,0-.523,0l-.185.185a.415.415,0,0,1-.588-.586h0l.185-.185a.37.37,0,0,0,0-.523l-.848-.848,1.94-1.94a4.354,4.354,0,0,0,.867.09Zm1.454,12.581a2.248,2.248,0,0,1-.787-.144l2.89-2.89a2.244,2.244,0,0,1-2.1,3.034ZM15.3,11.845a1.155,1.155,0,0,0,1.628,1.626l4.152,4.156c.045.045.087.093.128.141l-3.164,3.164c-.049-.041-.1-.083-.141-.128l-4.156-4.156a1.155,1.155,0,0,0-1.628-1.626l-.592-.592,3.18-3.176Zm1.494-3.722L8.4,16.516a.371.371,0,0,0-.1.352,3.725,3.725,0,1,1-2.691-2.691.373.373,0,0,0,.352-.1l8.392-8.392a.37.37,0,0,0,.1-.351,3.682,3.682,0,0,1,3.8-4.588L16.293,2.7a.37.37,0,0,0-.09.378l.74,2.22a.37.37,0,0,0,.234.234l2.22.74a.37.37,0,0,0,.378-.089l1.952-1.952c0,.071.007.14.007.21A3.681,3.681,0,0,1,17.14,8.026a.37.37,0,0,0-.352.1h0Zm0,0" transform="translate(-0.274 0)" fill="#fff" stroke="#fff" stroke-width="0.2"/>
    <path id="Path_51" data-name="Path 51" d="M387.114,386.325l-.523.523-3.7-3.7.523-.523Zm0,0" transform="translate(-367.981 -367.715)" fill="#fff" stroke="#fff" stroke-width="0.2"/>
  </g>
</svg>
