<svg xmlns="http://www.w3.org/2000/svg" width="20.219" height="14.272" viewBox="0 0 20.219 14.272">
  <g id="Group_161" data-name="Group 161" transform="translate(-1315.75 -4372.917)">
    <path id="Path_273" data-name="Path 273" d="M26.62,19.235H22.138l.082-.082a.35.35,0,0,0,0-.494l-2.293-2.293a.359.359,0,0,0-.494,0L18.2,17.6l-1.632,1.632H7.1a.35.35,0,0,0-.35.35v10.6a.35.35,0,0,0,.35.35H26.62a.35.35,0,0,0,.35-.35v-10.6A.35.35,0,0,0,26.62,19.235Zm-6.943-2.128,1.8,1.8-.816.816-1.8-1.8Zm-6.943,9.074L19.6,19.316l.73.734-6.859,6.876Zm.315.979H11.416V25.528Zm5.484-8.908.734.734L12.4,25.852l-.734-.734ZM26.27,29.84H7.449V19.934h8.412l-5.03,5.03a.35.35,0,0,0-.1.247V27.5a.35.35,0,0,0,.35.35h2.293a.35.35,0,0,0,.247-.1l7.372-7.37.448-.448H26.27Z" transform="translate(1309 4356.65)" fill="#0c8bbd"/>
    <path id="Path_274" data-name="Path 274" d="M43.13,63.723a.233.233,0,0,0,.233.233H52.1a.233.233,0,1,0,0-.466h-8.74A.233.233,0,0,0,43.13,63.723Z" transform="translate(1281.099 4320.434)" fill="#0c8bbd"/>
  </g>
</svg>
